<svg xmlns="http://www.w3.org/2000/svg" viewBox="0 0 16 16" width="64" height="64">

    <path id="canSides" class="logo__can-sides" fill="#FFF" stroke="#000" stroke-linejoin="round"
        d="M3 2h10v11.1c-.1 1-2.3 1.9-5 1.9-2.8 0-5-.9-5-2V2z" />
    <ellipse class="logo__can-top" cx="8" cy="2" fill="#000" stroke="#000" rx="5" ry="1" />
    <text class="logo__text">
        <textPath href="#canSides" startOffset="14" side="right" spacing="auto" method="stretch">
            MK
        </textPath>
    </text>
    <g class="logo__cloud" fill="#FFF" stroke="#979797">
        <path stroke-linejoin="round"
            d="M8.5 5c2 0 3.5.9 3.5 2a2 2 0 1 1-1.6 3.3A7 7 0 0 1 7 11c-2.2 0-4-.7-4-1.5 0-.2.1-.5.4-.7l.7-.3c-1 0-2-.1-2.1-1C1.9 6.7 3.6 6 5.5 6c.6-.6 1.7-1 3-1z" />
        <path stroke-linecap="round" d="M8 7c2.4-.6 2.4 1 2.4 1" />
    </g>

</svg>